<?xml version="1.0" standalone="no"?>
<!DOCTYPE svg PUBLIC "-//W3C//DTD SVG 20010904//EN"
 "http://www.w3.org/TR/2001/REC-SVG-20010904/DTD/svg10.dtd">
<svg version="1.0" xmlns="http://www.w3.org/2000/svg"
 width="248.000000pt" height="260.000000pt" viewBox="0 0 248.000000 260.000000"
 preserveAspectRatio="xMidYMid meet">

<g transform="translate(0.000000,260.000000) scale(0.100000,-0.100000)"
fill="#000000" stroke="none">
<path d="M655 2470 c-82 -12 -136 -29 -220 -70 -187 -90 -322 -258 -375 -466
-19 -72 -20 -113 -20 -639 0 -526 1 -567 20 -639 64 -251 245 -438 500 -518
l75 -23 600 0 c642 0 632 -1 765 52 224 89 385 283 434 525 9 42 16 91 16 108
l0 30 -239 0 -239 0 -7 -37 c-16 -85 -75 -156 -156 -187 -39 -15 -100 -16
-579 -14 l-535 3 -44 23 c-54 29 -88 65 -112 117 -17 37 -19 76 -19 560 0 580
-2 562 71 634 75 74 40 71 746 71 l633 0 2 -348 3 -348 237 383 238 384 0 205
0 204 -872 -1 c-480 -1 -895 -5 -923 -9z"/>
</g>
</svg>
